<svg width="13" height="21" viewBox="0 0 13 21" fill="none" xmlns="http://www.w3.org/2000/svg">
<path d="M2.04264 3.97262C1.56617 1.63699 3.94728 1 6.56603 1C9.18478 1 11.5653 1.63699 11.0888 3.97262" stroke="#003153" stroke-width="2"/>
<path d="M10.8996 9.42231C10.8996 11.8849 8.90327 13.8812 6.44067 13.8812C3.97807 13.8812 1.98175 11.8849 1.98175 9.42231C1.98175 6.95971 3.97807 4.96338 6.44067 4.96338C8.90327 4.96338 10.8996 6.95971 10.8996 9.42231Z" fill="#003153"/>
<path d="M12.8813 20.9999C12.8813 19.2917 12.2028 17.6535 10.9949 16.4456C9.78705 15.2378 8.14884 14.5592 6.44067 14.5592C4.7325 14.5592 3.09429 15.2378 1.88643 16.4456C0.678569 17.6535 2.57927e-07 19.2917 0 20.9999L12.8813 20.9999Z" fill="#003153"/>
</svg>
