<svg width="19" height="17" viewBox="0 0 19 17" fill="none" xmlns="http://www.w3.org/2000/svg">
<path d="M0 7C0 6.44771 0.447715 6 1 6H15C15.5523 6 16 6.44772 16 7V15C16 16.1046 15.1046 17 14 17H2C0.895431 17 0 16.1046 0 15V7Z" fill="#003153"/>
<path d="M0 3.5C0 2.67157 0.671573 2 1.5 2H14.5C15.3284 2 16 2.67157 16 3.5V4.5C16 4.77614 15.7761 5 15.5 5H0.5C0.223858 5 0 4.77614 0 4.5V3.5Z" fill="#003153"/>
<rect x="2.6001" y="8.5" width="2.25" height="2.25" rx="0.5" fill="white"/>
<rect x="2.6001" y="12.25" width="2.25" height="2.25" rx="0.5" fill="white"/>
<path d="M6.7998 9C6.7998 8.72386 7.02366 8.5 7.2998 8.5H8.5498C8.82595 8.5 9.0498 8.72386 9.0498 9V10.25C9.0498 10.5261 8.82595 10.75 8.5498 10.75H7.2998C7.02366 10.75 6.7998 10.5261 6.7998 10.25V9Z" fill="white"/>
<rect x="6.7998" y="12.25" width="2.25" height="2.25" rx="0.5" fill="white"/>
<path d="M11 9C11 8.72386 11.2239 8.5 11.5 8.5H12.75C13.0261 8.5 13.25 8.72386 13.25 9V10.25C13.25 10.5261 13.0261 10.75 12.75 10.75H11.5C11.2239 10.75 11 10.5261 11 10.25V9Z" fill="white"/>
<rect x="11" y="12.25" width="2.25" height="2.25" rx="0.5" fill="white"/>
<path d="M5.5 1.25C5.5 0.697715 5.05228 0.25 4.5 0.25C3.94772 0.25 3.5 0.697715 3.5 1.25V2H4.55859H5.5V1.25Z" fill="#003153"/>
<path d="M12.5 1.25C12.5 0.697715 12.0523 0.25 11.5 0.25C10.9477 0.25 10.5 0.697715 10.5 1.25V2H11.5586H12.5V1.25Z" fill="#003153"/>
<rect x="12.5" y="10.5" width="6" height="6" rx="3" fill="white" stroke="#003153"/>
<rect x="15" y="13.6001" width="0.75" height="1.75" rx="0.375" transform="rotate(-55 15 13.6001)" fill="#003153"/>
<rect x="15.125" y="11.5" width="0.75" height="2.25" rx="0.375" fill="#003153"/>
</svg>
