<svg width="14" height="20" viewBox="0 0 14 20" fill="none" xmlns="http://www.w3.org/2000/svg">
<path d="M13.3331 3.7002H8.88867L11.0739 7.03353L13.3331 3.7002Z" fill="#003153"/>
<path d="M2.22168 6.66683L4.4439 10.0002L6.66612 13.3335L8.88835 10.0002L6.66612 6.66683L4.4439 3.3335L2.22168 6.66683Z" fill="#003153"/>
<path d="M11.1111 20L13.3333 16.6667L11.1111 13.3333L8.88889 10L6.66667 13.3333L8.88889 16.6667H4.44444L2.22222 13.3333L0 16.6667L2.22222 20H6.66667H11.1111Z" fill="#003153"/>
<path d="M13.3333 3.33333H0L2.22222 0H11.1111L13.3333 3.33333Z" fill="#003153"/>
<path d="M10.526 7.36816C8.88164 9.83463 7.95974 11.2175 6.31543 13.684" stroke="white" stroke-width="0.5"/>
</svg>
